CodaCaption-Bold.ufo
<glyph name="numbersign" format="1">
  <advance width="1659"/>
  <unicode hex="0023"/>
  <outline>
    <contour>
      <point x="660" y="582" type="line"/>
      <point x="723" y="974" type="line"/>
      <point x="1003" y="974" type="line"/>
      <point x="940" y="582" type="line"/>
    </contour>
    <contour>
      <point x="274" y="0" type="line"/>
      <point x="565" y="0" type="line"/>
      <point x="632" y="414" type="line"/>
      <point x="914" y="414" type="line"/>
      <point x="848" y="0" type="line"/>
      <point x="1137" y="0" type="line"/>
      <point x="1204" y="414" type="line"/>
      <point x="1443" y="414" type="line"/>
      <point x="1467" y="582" type="line"/>
      <point x="1230" y="582" type="line"/>
      <point x="1292" y="974" type="line"/>
      <point x="1526" y="974" type="line"/>
      <point x="1551" y="1155" type="line"/>
      <point x="1322" y="1155" type="line"/>
      <point x="1380" y="1527" type="line"/>
      <point x="1091" y="1527" type="line"/>
      <point x="1032" y="1155" type="line"/>
      <point x="753" y="1155" type="line"/>
      <point x="813" y="1527" type="line"/>
      <point x="520" y="1527" type="line"/>
      <point x="460" y="1155" type="line"/>
      <point x="229" y="1155" type="line"/>
      <point x="201" y="974" type="line"/>
      <point x="429" y="974" type="line"/>
      <point x="367" y="582" type="line"/>
      <point x="141" y="582" type="line"/>
      <point x="114" y="414" type="line"/>
      <point x="340" y="414" type="line"/>
    </contour>
  </outline>
</glyph>
<glyph name="dollar" format="1">
  <advance width="1313"/>
  <unicode hex="0024"/>
  <outline>
    <component base="S"/>
    <contour>
      <point x="675" y="1766" type="line"/>
      <point x="675" y="1451" type="line"/>
      <point x="783" y="1451" type="line"/>
      <point x="783" y="1766" type="line"/>
    </contour>
    <contour>
      <point x="675" y="72" type="line"/>
      <point x="675" y="-243" type="line"/>
      <point x="783" y="-243" type="line"/>
      <point x="783" y="72" type="line"/>
    </contour>
  </outline>
</glyph>
<glyph name="ampersand" format="1">
  <advance width="1572"/>
  <unicode hex="0026"/>
  <outline>
    <contour>
      <point x="735" y="174" type="curve" smooth="yes"/>
      <point x="562" y="174"/>
      <point x="480" y="224"/>
      <point x="480" y="333" type="curve" smooth="yes"/>
      <point x="480" y="479"/>
      <point x="482" y="730"/>
      <point x="578" y="730" type="curve" smooth="yes"/>
      <point x="1000" y="730" type="line"/>
      <point x="1000" y="317" type="line" smooth="yes"/>
      <point x="1000" y="222"/>
      <point x="945" y="174"/>
    </contour>
    <contour>
      <point x="726" y="-23" type="curve" smooth="yes"/>
      <point x="1200" y="-23"/>
      <point x="1311" y="88"/>
      <point x="1310" y="427" type="curve"/>
      <point x="1310" y="729" type="line"/>
      <point x="1450" y="730" type="line"/>
      <point x="1450" y="879" type="line"/>
      <point x="1310" y="879" type="line"/>
      <point x="1310" y="998" type="line"/>
      <point x="1000" y="998" type="line"/>
      <point x="1000" y="879" type="line"/>
      <point x="651" y="879" type="line" smooth="yes"/>
      <point x="595" y="879"/>
      <point x="524" y="906"/>
      <point x="522" y="1052" type="curve"/>
      <point x="522" y="1227" type="line" smooth="yes"/>
      <point x="522" y="1331"/>
      <point x="606" y="1364"/>
      <point x="756" y="1364" type="curve" smooth="yes"/>
      <point x="851" y="1364"/>
      <point x="942" y="1361"/>
      <point x="971" y="1346" type="curve" smooth="yes"/>
      <point x="1001" y="1330"/>
      <point x="1004" y="1243"/>
      <point x="1008" y="1192" type="curve"/>
      <point x="1299" y="1210" type="line"/>
      <point x="1299" y="1288" type="line" smooth="yes"/>
      <point x="1299" y="1505"/>
      <point x="1115" y="1555"/>
      <point x="762" y="1555" type="curve" smooth="yes"/>
      <point x="370" y="1555"/>
      <point x="182" y="1483"/>
      <point x="182" y="1164" type="curve" smooth="yes"/>
      <point x="182" y="1003"/>
      <point x="232" y="915"/>
      <point x="289" y="874" type="curve"/>
      <point x="299" y="861"/>
      <point x="363" y="845"/>
      <point x="377" y="838" type="curve"/>
      <point x="377" y="827" type="line"/>
      <point x="359" y="824"/>
      <point x="303" y="810"/>
      <point x="288" y="800" type="curve" smooth="yes"/>
      <point x="187" y="753"/>
      <point x="142" y="589"/>
      <point x="142" y="414" type="curve" smooth="yes"/>
      <point x="142" y="80"/>
      <point x="343" y="-23"/>
    </contour>
  </outline>
</glyph>
<glyph name="comma" format="1">
  <advance width="711"/>
  <unicode hex="002C"/>
  <outline>
    <contour>
      <point x="237" y="-232" type="curve" smooth="yes"/>
      <point x="406" y="-232"/>
      <point x="525" y="-31"/>
      <point x="525" y="144" type="curve" smooth="yes"/>
      <point x="525" y="251"/>
      <point x="467" y="344"/>
      <point x="360" y="344" type="curve" smooth="yes"/>
      <point x="264" y="344"/>
      <point x="193" y="276"/>
      <point x="193" y="173" type="curve" smooth="yes"/>
      <point x="193" y="74"/>
      <point x="261" y="4"/>
      <point x="349" y="0" type="curve"/>
      <point x="347" y="-85"/>
      <point x="268" y="-146"/>
      <point x="183" y="-146" type="curve"/>
      <point x="183" y="-228" type="line"/>
      <point x="195" y="-231"/>
      <point x="213" y="-232"/>
    </contour>
  </outline>
</glyph>
<glyph name="period" format="1">
  <advance width="692"/>
  <unicode hex="002E"/>
  <outline>
    <contour>
      <point x="345" y="-34" type="curve" smooth="yes"/>
      <point x="426" y="-34"/>
      <point x="506" y="22"/>
      <point x="506" y="136" type="curve" smooth="yes"/>
      <point x="506" y="247"/>
      <point x="423" y="305"/>
      <point x="341" y="305" type="curve" smooth="yes"/>
      <point x="260" y="305"/>
      <point x="181" y="249"/>
      <point x="181" y="136" type="curve" smooth="yes"/>
      <point x="181" y="24"/>
      <point x="263" y="-34"/>
    </contour>
  </outline>
</glyph>
<glyph name="one" format="1">
  <advance width="897"/>
  <unicode hex="0031"/>
  <outline>
    <contour>
      <point x="335" y="0" type="line"/>
      <point x="668" y="0" type="line"/>
      <point x="668" y="1527" type="line"/>
      <point x="400" y="1527" type="line"/>
      <point x="344" y="1446"/>
      <point x="252" y="1405"/>
      <point x="138" y="1402" type="curve"/>
      <point x="138" y="1266" type="line"/>
      <point x="335" y="1266" type="line"/>
    </contour>
  </outline>
</glyph>
<glyph name="colon" format="1">
  <advance width="715"/>
  <unicode hex="003A"/>
  <outline>
    <contour>
      <point x="357" y="924" type="curve" smooth="yes"/>
      <point x="438" y="924"/>
      <point x="518" y="982"/>
      <point x="518" y="1098" type="curve" smooth="yes"/>
      <point x="518" y="1213"/>
      <point x="437" y="1271"/>
      <point x="355" y="1271" type="curve" smooth="yes"/>
      <point x="274" y="1271"/>
      <point x="194" y="1214"/>
      <point x="194" y="1098" type="curve" smooth="yes"/>
      <point x="194" y="983"/>
      <point x="275" y="924"/>
    </contour>
    <contour>
      <point x="355" y="128" type="curve" smooth="yes"/>
      <point x="437" y="128"/>
      <point x="518" y="186"/>
      <point x="518" y="300" type="curve" smooth="yes"/>
      <point x="518" y="415"/>
      <point x="437" y="473"/>
      <point x="355" y="473" type="curve" smooth="yes"/>
      <point x="274" y="473"/>
      <point x="194" y="416"/>
      <point x="194" y="300" type="curve" smooth="yes"/>
      <point x="194" y="185"/>
      <point x="274" y="128"/>
    </contour>
  </outline>
</glyph>
<glyph name="equal" format="1">
  <advance width="1189"/>
  <unicode hex="003D"/>
  <outline>
    <contour>
      <point x="176" y="646" type="line"/>
      <point x="1031" y="646" type="line"/>
      <point x="1031" y="887" type="line"/>
      <point x="176" y="887" type="line"/>
    </contour>
    <contour>
      <point x="176" y="204" type="line"/>
      <point x="1031" y="204" type="line"/>
      <point x="1031" y="445" type="line"/>
      <point x="176" y="445" type="line"/>
    </contour>
  </outline>
</glyph>
<glyph name="E" format="1">
  <advance width="1189"/>
  <unicode hex="0045"/>
  <outline>
    <contour>
      <point x="605" y="0" type="move" name="bot"/>
    </contour>
    <contour>
      <point x="670" y="0" type="move" name="ogonek"/>
    </contour>
    <contour>
      <point x="605" y="1527" type="move" name="top"/>
    </contour>
    <contour>
      <point x="189" y="1527" type="line"/>
      <point x="189" y="0" type="line"/>
      <point x="1068" y="0" type="line"/>
      <point x="1081" y="187" type="line"/>
      <point x="532" y="187" type="line"/>
      <point x="532" y="701" type="line"/>
      <point x="1005" y="701" type="line"/>
      <point x="1005" y="893" type="line"/>
      <point x="532" y="893" type="line"/>
      <point x="532" y="1340" type="line"/>
      <point x="1079" y="1340" type="line"/>
      <point x="1062" y="1527" type="line"/>
    </contour>
  </outline>
</glyph>
<glyph name="I" format="1">
  <advance width="721"/>
  <unicode hex="0049"/>
  <outline>
    <contour>
      <point x="361" y="0" type="move" name="bot"/>
    </contour>
    <contour>
      <point x="369" y="0" type="move" name="ogonek"/>
    </contour>
    <contour>
      <point x="361" y="1527" type="move" name="top"/>
    </contour>
    <contour>
      <point x="189" y="1527" type="line"/>
      <point x="189" y="0" type="line"/>
      <point x="532" y="0" type="line"/>
      <point x="532" y="1527" type="line"/>
    </contour>
  </outline>
</glyph>
<glyph name="L" format="1">
  <advance width="1095"/>
  <unicode hex="004C"/>
  <outline>
    <contour>
      <point x="575" y="0" type="move" name="bot"/>
    </contour>
    <contour>
      <point x="420" y="1169" type="move" name="caron.alt"/>
    </contour>
    <contour>
      <point x="420" y="1527" type="move" name="top"/>
    </contour>
    <contour>
      <point x="189" y="1527" type="line"/>
      <point x="189" y="0" type="line"/>
      <point x="1011" y="0" type="line"/>
      <point x="1024" y="184" type="line"/>
      <point x="532" y="184" type="line"/>
      <point x="532" y="1527" type="line"/>
    </contour>
  </outline>
</glyph>
<glyph name="S" format="1">
  <advance width="1432"/>
  <unicode hex="0053"/>
  <outline>
    <contour>
      <point x="708" y="0" type="move" name="bot"/>
    </contour>
    <contour>
      <point x="708" y="1527" type="move" name="top"/>
    </contour>
    <contour>
      <point x="710" y="-21" type="curve" smooth="yes"/>
      <point x="1139" y="-21"/>
      <point x="1285" y="41"/>
      <point x="1285" y="476" type="curve" smooth="yes"/>
      <point x="1285" y="814"/>
      <point x="1132" y="871"/>
      <point x="880" y="915" type="curve" smooth="yes"/>
      <point x="619" y="961" type="line" smooth="yes"/>
      <point x="544" y="975"/>
      <point x="522" y="988"/>
      <point x="508" y="1015" type="curve"/>
      <point x="488" y="1033"/>
      <point x="483" y="1131"/>
      <point x="483" y="1176" type="curve" smooth="yes"/>
      <point x="483" y="1316"/>
      <point x="535" y="1341"/>
      <point x="721" y="1341" type="curve" smooth="yes"/>
      <point x="814" y="1341"/>
      <point x="887" y="1335"/>
      <point x="907" y="1315" type="curve" smooth="yes"/>
      <point x="929" y="1295"/>
      <point x="927" y="1209"/>
      <point x="933" y="1150" type="curve"/>
      <point x="1236" y="1187" type="line"/>
      <point x="1236" y="1509"/>
      <point x="1082" y="1547"/>
      <point x="696" y="1547" type="curve" smooth="yes"/>
      <point x="290" y="1547"/>
      <point x="155" y="1472"/>
      <point x="155" y="1090" type="curve" smooth="yes"/>
      <point x="155" y="840"/>
      <point x="240" y="745"/>
      <point x="445" y="702" type="curve"/>
      <point x="750" y="641" type="line"/>
      <point x="790" y="631"/>
      <point x="895" y="610"/>
      <point x="895" y="592" type="curve"/>
      <point x="935" y="584"/>
      <point x="941" y="460"/>
      <point x="942" y="353" type="curve" smooth="yes"/>
      <point x="942" y="209"/>
      <point x="891" y="182"/>
      <point x="708" y="182" type="curve" smooth="yes"/>
      <point x="600" y="182"/>
      <point x="521" y="190"/>
      <point x="496" y="216" type="curve" smooth="yes"/>
      <point x="473" y="242"/>
      <point x="474" y="361"/>
      <point x="466" y="433" type="curve"/>
      <point x="145" y="399" type="line"/>
      <point x="154" y="54"/>
      <point x="236" y="-21"/>
    </contour>
  </outline>
</glyph>
<glyph name="V" format="1">
  <advance width="1426"/>
  <unicode hex="0056"/>
  <outline>
    <contour>
      <point x="1017" y="1527" type="line"/>
      <point x="714" y="314" type="line"/>
      <point x="710" y="314" type="line"/>
      <point x="399" y="1527" type="line"/>
      <point x="53" y="1527" type="line"/>
      <point x="492" y="0" type="line"/>
      <point x="923" y="0" type="line"/>
      <point x="1367" y="1527" type="line"/>
    </contour>
  </outline>
</glyph>
<glyph name="W" format="1">
  <advance width="1965"/>
  <unicode hex="0057"/>
  <outline>
    <contour>
      <point x="980" y="0" type="move" name="bot"/>
    </contour>
    <contour>
      <point x="980" y="1527" type="move" name="top"/>
    </contour>
    <contour>
      <point x="1580" y="1527" type="line"/>
      <point x="1397" y="419" type="line"/>
      <point x="1383" y="419" type="line"/>
      <point x="1139" y="1527" type="line"/>
      <point x="840" y="1527" type="line"/>
      <point x="595" y="413" type="line"/>
      <point x="585" y="413" type="line"/>
      <point x="409" y="1527" type="line"/>
      <point x="79" y="1527" type="line"/>
      <point x="359" y="0" type="line"/>
      <point x="717" y="0" type="line"/>
      <point x="975" y="1080" type="line"/>
      <point x="989" y="1080" type="line"/>
      <point x="1232" y="0" type="line"/>
      <point x="1597" y="0" type="line"/>
      <point x="1883" y="1527" type="line"/>
    </contour>
  </outline>
</glyph>
<glyph name="X" format="1">
  <advance width="1394"/>
  <unicode hex="0058"/>
  <outline>
    <contour>
      <point x="890" y="746" type="line"/>
      <point x="1350" y="1527" type="line"/>
      <point x="1016" y="1527" type="line"/>
      <point x="717" y="1026" type="line"/>
      <point x="408" y="1527" type="line"/>
      <point x="80" y="1527" type="line"/>
      <point x="521" y="810" type="line"/>
      <point x="31" y="0" type="line"/>
      <point x="367" y="0" type="line"/>
      <point x="692" y="531" type="line"/>
      <point x="1018" y="0" type="line"/>
      <point x="1350" y="0" type="line"/>
    </contour>
  </outline>
</glyph>
<glyph name="backslash" format="1">
  <advance width="938"/>
  <unicode hex="005C"/>
  <outline>
    <contour>
      <point x="144" y="1544" type="line"/>
      <point x="496" y="-17" type="line"/>
      <point x="785" y="-17" type="line"/>
      <point x="439" y="1544" type="line"/>
    </contour>
  </outline>
</glyph>
<glyph name="asciicircum" format="1">
  <advance width="1114"/>
  <unicode hex="005E"/>
  <outline>
    <contour>
      <point x="557" y="1520" type="curve" smooth="yes"/>
      <point x="493" y="1520"/>
      <point x="434" y="1499"/>
      <point x="404" y="1434" type="curve"/>
      <point x="53" y="707" type="line" smooth="yes"/>
      <point x="47.1065" y="694.665"/>
      <point x="44.4816" y="682.724"/>
      <point x="44.4816" y="671.536" type="curve" smooth="yes"/>
      <point x="44.4816" y="628.223"/>
      <point x="83.82" y="596.185"/>
      <point x="125.154" y="596.185" type="curve" smooth="yes"/>
      <point x="151.046" y="596.185"/>
      <point x="177.72" y="608.756"/>
      <point x="196" y="639" type="curve" smooth="yes"/>
      <point x="557" y="1251" type="line"/>
      <point x="919" y="639" type="line" smooth="yes"/>
      <point x="936.947" y="608.756"/>
      <point x="963.4" y="596.185"/>
      <point x="989.18" y="596.185" type="curve" smooth="yes"/>
      <point x="1030.54" y="596.185"/>
      <point x="1070.17" y="628.539"/>
      <point x="1070.17" y="672.176" type="curve" smooth="yes"/>
      <point x="1070.17" y="683.179"/>
      <point x="1067.65" y="694.9"/>
      <point x="1062" y="707" type="curve" smooth="yes"/>
      <point x="711" y="1434" type="line" smooth="yes"/>
      <point x="680" y="1499"/>
      <point x="621" y="1520"/>
    </contour>
  </outline>
</glyph>
<glyph name="underscore" format="1">
  <advance width="867"/>
  <unicode hex="005F"/>
  <outline>
    <contour>
      <point x="6" y="-94" type="line"/>
      <point x="6" y="-268" type="line"/>
      <point x="861" y="-268" type="line"/>
      <point x="861" y="-94" type="line"/>
    </contour>
  </outline>
</glyph>
<glyph name="e" format="1">
  <advance width="1299"/>
  <unicode hex="0065"/>
  <outline>
    <contour>
      <point x="650" y="0" type="move" name="bot"/>
    </contour>
    <contour>
      <point x="746" y="0" type="move" name="ogonek"/>
    </contour>
    <contour>
      <point x="636" y="1168" type="move" name="top"/>
    </contour>
    <contour>
      <point x="464" y="698" type="line"/>
      <point x="466" y="740"/>
      <point x="464" y="918"/>
      <point x="475" y="962" type="curve" smooth="yes"/>
      <point x="488" y="1011"/>
      <point x="532" y="1024"/>
      <point x="660" y="1024" type="curve" smooth="yes"/>
      <point x="771" y="1024"/>
      <point x="835" y="1011"/>
      <point x="839" y="957" type="curve" smooth="yes"/>
      <point x="843" y="908"/>
      <point x="845" y="743"/>
      <point x="845" y="698" type="curve"/>
    </contour>
    <contour>
      <point x="666" y="-21" type="curve" smooth="yes"/>
      <point x="996" y="-21"/>
      <point x="1152" y="38"/>
      <point x="1156" y="283" type="curve" smooth="yes"/>
      <point x="1156" y="294"/>
      <point x="1156" y="364"/>
      <point x="1154" y="378" type="curve"/>
      <point x="854" y="383" type="line"/>
      <point x="848" y="204" type="line"/>
      <point x="844" y="166"/>
      <point x="782" y="146"/>
      <point x="671" y="146" type="curve" smooth="yes"/>
      <point x="541" y="146"/>
      <point x="472" y="159"/>
      <point x="469" y="217" type="curve" smooth="yes"/>
      <point x="465" y="285"/>
      <point x="464" y="495"/>
      <point x="464" y="569" type="curve"/>
      <point x="1170" y="569" type="line"/>
      <point x="1173" y="743" type="line"/>
      <point x="1170" y="1126"/>
      <point x="1009" y="1189"/>
      <point x="660" y="1189" type="curve" smooth="yes"/>
      <point x="294" y="1189"/>
      <point x="136" y="1120"/>
      <point x="136" y="720" type="curve" smooth="yes"/>
      <point x="136" y="420" type="line" smooth="yes"/>
      <point x="136" y="41"/>
      <point x="314" y="-21"/>
    </contour>
  </outline>
</glyph>
<glyph name="g" format="1">
  <advance width="1325"/>
  <unicode hex="0067"/>
  <outline>
    <contour>
      <point x="664" y="0" type="move" name="bot"/>
    </contour>
    <contour>
      <point x="651" y="1168" type="move" name="top"/>
    </contour>
    <contour>
      <point x="666" y="211" type="curve" smooth="yes"/>
      <point x="460" y="211"/>
      <point x="466" y="280"/>
      <point x="464" y="362" type="curve" smooth="yes"/>
      <point x="462" y="435"/>
      <point x="462" y="781"/>
      <point x="462" y="866" type="curve" smooth="yes"/>
      <point x="462" y="1007"/>
      <point x="510" y="1025"/>
      <point x="653" y="1025" type="curve" smooth="yes"/>
      <point x="780" y="1025"/>
      <point x="847" y="999"/>
      <point x="847" y="928" type="curve" smooth="yes"/>
      <point x="846" y="269" type="line" smooth="yes"/>
      <point x="846" y="222"/>
      <point x="734" y="211"/>
    </contour>
    <contour>
      <point x="136" y="722" type="curve" smooth="yes"/>
      <point x="136" y="497" type="line" smooth="yes"/>
      <point x="136" y="176"/>
      <point x="196" y="43"/>
      <point x="553" y="43" type="curve" smooth="yes"/>
      <point x="706" y="43"/>
      <point x="805" y="81"/>
      <point x="850" y="170" type="curve"/>
      <point x="850" y="-84" type="line"/>
      <point x="834" y="-159"/>
      <point x="789" y="-203"/>
      <point x="592" y="-203" type="curve" smooth="yes"/>
      <point x="480" y="-203"/>
      <point x="336" y="-188"/>
      <point x="260" y="-167" type="curve"/>
      <point x="232" y="-357" type="line"/>
      <point x="326" y="-387"/>
      <point x="486" y="-407"/>
      <point x="640" y="-407" type="curve" smooth="yes"/>
      <point x="1053" y="-407"/>
      <point x="1174" y="-262"/>
      <point x="1174" y="128" type="curve" smooth="yes"/>
      <point x="1175" y="1168" type="line"/>
      <point x="880" y="1168" type="line"/>
      <point x="855" y="1049" type="line"/>
      <point x="800" y="1150"/>
      <point x="690" y="1188"/>
      <point x="525" y="1189" type="curve" smooth="yes"/>
      <point x="210" y="1189"/>
      <point x="136" y="1065"/>
    </contour>
  </outline>
</glyph>
<glyph name="l" format="1">
  <advance width="669"/>
  <unicode hex="006C"/>
  <outline>
    <contour>
      <point x="342" y="0" type="move" name="bottom"/>
    </contour>
    <contour>
      <point x="346" y="1060" type="move" name="mid"/>
    </contour>
    <contour>
      <point x="343" y="0" type="move" name="bot"/>
    </contour>
    <contour>
      <point x="394" y="1168" type="move" name="caron.alt"/>
    </contour>
    <contour>
      <point x="350" y="1527" type="move" name="top"/>
    </contour>
    <contour>
      <point x="182" y="1565" type="line"/>
      <point x="182" y="0" type="line"/>
      <point x="510" y="0" type="line"/>
      <point x="510" y="1565" type="line"/>
    </contour>
  </outline>
</glyph>
<glyph name="r" format="1">
  <advance width="899"/>
  <unicode hex="0072"/>
  <outline>
    <contour>
      <point x="411" y="0" type="move" name="bot"/>
    </contour>
    <contour>
      <point x="438" y="1168" type="move" name="top"/>
    </contour>
    <contour>
      <point x="483" y="1037" type="curve"/>
      <point x="456" y="1168" type="line"/>
      <point x="169" y="1168" type="line"/>
      <point x="169" y="0" type="line"/>
      <point x="497" y="0" type="line"/>
      <point x="497" y="567" type="line" smooth="yes"/>
      <point x="497" y="612"/>
      <point x="492" y="718"/>
      <point x="492" y="770" type="curve" smooth="yes"/>
      <point x="492" y="907"/>
      <point x="661" y="944"/>
      <point x="782" y="944" type="curve"/>
      <point x="787" y="1185" type="line"/>
      <point x="648" y="1184"/>
      <point x="530" y="1147"/>
    </contour>
  </outline>
</glyph>
<glyph name="y" format="1">
  <advance width="1192"/>
  <unicode hex="0079"/>
  <outline>
    <contour>
      <point x="598" y="0" type="move" name="bot"/>
    </contour>
    <contour>
      <point x="603" y="1168" type="move" name="top"/>
    </contour>
    <contour>
      <point x="832" y="1168" type="line"/>
      <point x="626" y="273" type="line"/>
      <point x="622" y="273" type="line"/>
      <point x="364" y="1168" type="line"/>
      <point x="53" y="1168" type="line"/>
      <point x="456" y="20" type="line"/>
      <point x="444" y="-45"/>
      <point x="437" y="-89"/>
      <point x="421" y="-117" type="curve"/>
      <point x="405" y="-158"/>
      <point x="369" y="-174"/>
      <point x="305" y="-174" type="curve" smooth="yes"/>
      <point x="264" y="-174"/>
      <point x="211" y="-165"/>
      <point x="149" y="-153" type="curve"/>
      <point x="125" y="-347" type="line"/>
      <point x="213" y="-364"/>
      <point x="326" y="-377"/>
      <point x="399" y="-377" type="curve" smooth="yes"/>
      <point x="602" y="-377"/>
      <point x="715" y="-309"/>
      <point x="798" y="-28" type="curve"/>
      <point x="1142" y="1168" type="line"/>
    </contour>
  </outline>
</glyph>
<glyph name="z" format="1">
  <advance width="1044"/>
  <unicode hex="007A"/>
  <outline>
    <contour>
      <point x="519" y="0" type="move" name="bot"/>
    </contour>
    <contour>
      <point x="486" y="1168" type="move" name="top"/>
    </contour>
    <contour>
      <point x="162" y="1168" type="line"/>
      <point x="172" y="992" type="line"/>
      <point x="592" y="992" type="line"/>
      <point x="138" y="173" type="line"/>
      <point x="157" y="0" type="line"/>
      <point x="934" y="0" type="line"/>
      <point x="945" y="174" type="line"/>
      <point x="486" y="174" type="line"/>
      <point x="936" y="1002" type="line"/>
      <point x="922" y="1168" type="line"/>
    </contour>
  </outline>
</glyph>
<glyph name="braceleft" format="1">
  <advance width="1005"/>
  <unicode hex="007B"/>
  <outline>
    <contour>
      <point x="924" y="-253" type="curve"/>
      <point x="924" y="-74" type="line"/>
      <point x="654.694" y="-74"/>
      <point x="635.949" y="-23.3248"/>
      <point x="635.949" y="264.387" type="curve" smooth="yes"/>
      <point x="635.949" y="273.676"/>
      <point x="635.969" y="283.211"/>
      <point x="636" y="293" type="curve" smooth="yes"/>
      <point x="636" y="572"/>
      <point x="596" y="707"/>
      <point x="433" y="742" type="curve"/>
      <point x="596" y="778"/>
      <point x="636" y="913"/>
      <point x="636" y="1192" type="curve" smooth="yes"/>
      <point x="635.969" y="1201.79"/>
      <point x="635.949" y="1211.32"/>
      <point x="635.949" y="1220.61" type="curve" smooth="yes"/>
      <point x="635.949" y="1508.32"/>
      <point x="654.694" y="1559"/>
      <point x="924" y="1559" type="curve"/>
      <point x="924" y="1737" type="line"/>
      <point x="492" y="1737"/>
      <point x="349" y="1638"/>
      <point x="346" y="1171" type="curve" smooth="yes"/>
      <point x="344" y="899"/>
      <point x="301" y="848"/>
      <point x="112" y="848" type="curve"/>
      <point x="112" y="637" type="line"/>
      <point x="301" y="637"/>
      <point x="344" y="586"/>
      <point x="346" y="314" type="curve" smooth="yes"/>
      <point x="349" y="-154"/>
      <point x="492" y="-253"/>
    </contour>
  </outline>
</glyph>
<glyph name="bar" format="1">
  <advance width="738"/>
  <unicode hex="007C"/>
  <outline>
    <contour>
      <point x="210" y="1693" type="line"/>
      <point x="210" y="-149" type="line"/>
      <point x="524" y="-149" type="line"/>
      <point x="524" y="1693" type="line"/>
    </contour>
  </outline>
</glyph>
<glyph name="section" format="1">
  <advance width="1271"/>
  <unicode hex="00A7"/>
  <outline>
    <contour>
      <point x="767" y="514" type="curve"/>
      <point x="698" y="525"/>
      <point x="635" y="531"/>
      <point x="598" y="538" type="curve" smooth="yes"/>
      <point x="514" y="553"/>
      <point x="490" y="571"/>
      <point x="490" y="665" type="curve" smooth="yes"/>
      <point x="490" y="696"/>
      <point x="496" y="810"/>
      <point x="506" y="849" type="curve"/>
      <point x="526" y="843"/>
      <point x="610" y="837"/>
      <point x="717" y="804" type="curve" smooth="yes"/>
      <point x="760" y="791"/>
      <point x="788" y="768"/>
      <point x="788" y="684" type="curve" smooth="yes"/>
      <point x="788" y="636"/>
      <point x="781" y="524"/>
    </contour>
    <contour>
      <point x="627" y="-206" type="curve" smooth="yes"/>
      <point x="927" y="-206"/>
      <point x="1097" y="-152"/>
      <point x="1097" y="166" type="curve" smooth="yes"/>
      <point x="1097" y="314"/>
      <point x="1036" y="405"/>
      <point x="965" y="457" type="curve"/>
      <point x="1043" y="489"/>
      <point x="1105" y="579"/>
      <point x="1105" y="708" type="curve" smooth="yes"/>
      <point x="1105" y="948"/>
      <point x="929" y="981"/>
      <point x="725" y="1008" type="curve"/>
      <point x="498" y="1045"/>
      <point x="498" y="1045"/>
      <point x="492" y="1166" type="curve" smooth="yes"/>
      <point x="492" y="1231"/>
      <point x="501" y="1352"/>
      <point x="522" y="1369" type="curve" smooth="yes"/>
      <point x="544" y="1386"/>
      <point x="592" y="1386"/>
      <point x="643" y="1386" type="curve" smooth="yes"/>
      <point x="704" y="1386"/>
      <point x="753" y="1382"/>
      <point x="773" y="1361" type="curve" smooth="yes"/>
      <point x="794" y="1341"/>
      <point x="800" y="1239"/>
      <point x="800" y="1177" type="curve"/>
      <point x="1104" y="1177" type="line"/>
      <point x="1104" y="1232"/>
      <point x="1101" y="1278"/>
      <point x="1093" y="1319" type="curve" smooth="yes"/>
      <point x="1067" y="1532"/>
      <point x="882" y="1567"/>
      <point x="647" y="1567" type="curve" smooth="yes"/>
      <point x="345" y="1567"/>
      <point x="181" y="1510"/>
      <point x="181" y="1197" type="curve" smooth="yes"/>
      <point x="181" y="1057"/>
      <point x="228" y="964"/>
      <point x="304" y="911" type="curve"/>
      <point x="260" y="876"/>
      <point x="174" y="792"/>
      <point x="174" y="668" type="curve" smooth="yes"/>
      <point x="174" y="407"/>
      <point x="293" y="358"/>
      <point x="605" y="331" type="curve" smooth="yes"/>
      <point x="675" y="323"/>
      <point x="786" y="285"/>
      <point x="786" y="198" type="curve" smooth="yes"/>
      <point x="786" y="140"/>
      <point x="782" y="18"/>
      <point x="763" y="-2" type="curve" smooth="yes"/>
      <point x="745" y="-21"/>
      <point x="701" y="-25"/>
      <point x="646" y="-25" type="curve" smooth="yes"/>
      <point x="582" y="-25"/>
      <point x="530" y="-24"/>
      <point x="506" y="-6" type="curve" smooth="yes"/>
      <point x="482" y="12"/>
      <point x="474" y="115"/>
      <point x="474" y="185" type="curve"/>
      <point x="169" y="185" type="line"/>
      <point x="169" y="137"/>
      <point x="171" y="95"/>
      <point x="177" y="58" type="curve" smooth="yes"/>
      <point x="200" y="-170"/>
      <point x="386" y="-206"/>
    </contour>
  </outline>
</glyph>
<glyph name="logicalnot" format="1">
  <advance width="1309"/>
  <unicode hex="00AC"/>
  <outline>
    <contour>
      <point x="958" y="275" type="line"/>
      <point x="1135" y="275" type="line"/>
      <point x="1135" y="905" type="line"/>
      <point x="151" y="905" type="line"/>
      <point x="151" y="697" type="line"/>
      <point x="958" y="697" type="line"/>
    </contour>
  </outline>
</glyph>
<glyph name="threesuperior" format="1">
  <advance width="1256"/>
  <unicode hex="00B3"/>
  <outline>
    <contour>
      <point x="641" y="459" type="curve" smooth="yes"/>
      <point x="926" y="459"/>
      <point x="1047" y="535"/>
      <point x="1047" y="781" type="curve" smooth="yes"/>
      <point x="1047" y="889"/>
      <point x="1027" y="982"/>
      <point x="933" y="1011" type="curve"/>
      <point x="1022" y="1041"/>
      <point x="1045" y="1115"/>
      <point x="1045" y="1223" type="curve" smooth="yes"/>
      <point x="1045" y="1470"/>
      <point x="949" y="1547"/>
      <point x="640" y="1547" type="curve" smooth="yes"/>
      <point x="321" y="1547"/>
      <point x="224" y="1464"/>
      <point x="224" y="1201" type="curve" smooth="yes"/>
      <point x="224" y="1166" type="line"/>
      <point x="478" y="1166" type="line"/>
      <point x="479" y="1273" type="line"/>
      <point x="482" y="1382"/>
      <point x="520" y="1396"/>
      <point x="639" y="1396" type="curve" smooth="yes"/>
      <point x="760" y="1396"/>
      <point x="794" y="1374"/>
      <point x="794" y="1287" type="curve" smooth="yes"/>
      <point x="794" y="1264.81"/>
      <point x="794.488" y="1239.83"/>
      <point x="794.488" y="1215.08" type="curve" smooth="yes"/>
      <point x="794.488" y="1146.14"/>
      <point x="790.698" y="1079"/>
      <point x="762" y="1079" type="curve" smooth="yes"/>
      <point x="530" y="1079" type="line"/>
      <point x="530" y="950" type="line"/>
      <point x="762" y="950" type="line" smooth="yes"/>
      <point x="791.878" y="950"/>
      <point x="794.064" y="847.249"/>
      <point x="794.064" y="774.251" type="curve" smooth="yes"/>
      <point x="794.064" y="761.737"/>
      <point x="794" y="750.098"/>
      <point x="794" y="740" type="curve" smooth="yes"/>
      <point x="794" y="649"/>
      <point x="757" y="618"/>
      <point x="649" y="618" type="curve" smooth="yes"/>
      <point x="508.108" y="618"/>
      <point x="477.779" y="647"/>
      <point x="477.779" y="734.333" type="curve" smooth="yes"/>
      <point x="477.779" y="738.739"/>
      <point x="477.856" y="743.293"/>
      <point x="478" y="748" type="curve" smooth="yes"/>
      <point x="478" y="860" type="line"/>
      <point x="224" y="860" type="line"/>
      <point x="224" y="813" type="line" smooth="yes"/>
      <point x="224" y="563"/>
      <point x="321" y="459"/>
    </contour>
  </outline>
</glyph>
<glyph name="acute" format="1">
  <advance width="886"/>
  <unicode hex="00B4"/>
  <outline>
    <contour>
      <point x="399" y="1168" type="move" name="_top"/>
    </contour>
    <contour>
      <point x="187.815" y="1376.67" type="curve" smooth="yes"/>
      <point x="187.815" y="1360.16"/>
      <point x="202.114" y="1350.61"/>
      <point x="218.737" y="1350.61" type="curve" smooth="yes"/>
      <point x="223.242" y="1350.61"/>
      <point x="228.045" y="1351.35"/>
      <point x="233" y="1353" type="curve" smooth="yes"/>
      <point x="305" y="1375"/>
      <point x="646" y="1490"/>
      <point x="699" y="1518" type="curve" smooth="yes"/>
      <point x="759" y="1548"/>
      <point x="786" y="1601"/>
      <point x="786" y="1649" type="curve" smooth="yes"/>
      <point x="786" y="1715"/>
      <point x="737" y="1777"/>
      <point x="658" y="1777" type="curve" smooth="yes"/>
      <point x="624" y="1777"/>
      <point x="591" y="1762"/>
      <point x="559" y="1741" type="curve" smooth="yes"/>
      <point x="499" y="1700"/>
      <point x="258" y="1455"/>
      <point x="201" y="1403" type="curve" smooth="yes"/>
      <point x="191.739" y="1394.36"/>
      <point x="187.815" y="1384.95"/>
    </contour>
  </outline>
</glyph>
<glyph name="ordmasculine" format="1">
  <advance width="1135"/>
  <unicode hex="00BA"/>
  <outline>
    <contour>
      <point x="421" y="797" type="curve" smooth="yes"/>
      <point x="421" y="1366" type="line" smooth="yes"/>
      <point x="421" y="1407"/>
      <point x="502" y="1413"/>
      <point x="566" y="1413" type="curve" smooth="yes"/>
      <point x="631" y="1413"/>
      <point x="712" y="1407"/>
      <point x="712" y="1366" type="curve" smooth="yes"/>
      <point x="712" y="797" type="line" smooth="yes"/>
      <point x="712" y="761"/>
      <point x="652" y="753"/>
      <point x="566" y="753" type="curve" smooth="yes"/>
      <point x="481" y="753"/>
      <point x="421" y="761"/>
    </contour>
    <contour>
      <point x="566" y="609" type="curve" smooth="yes"/>
      <point x="855" y="610"/>
      <point x="973" y="669"/>
      <point x="973" y="977" type="curve" smooth="yes"/>
      <point x="973" y="1165" type="line"/>
      <point x="974" y="1495"/>
      <point x="856" y="1547"/>
      <point x="567" y="1547" type="curve" smooth="yes"/>
      <point x="285" y="1547"/>
      <point x="159" y="1497"/>
      <point x="159" y="1165" type="curve" smooth="yes"/>
      <point x="159" y="977" type="line" smooth="yes"/>
      <point x="159" y="670"/>
      <point x="276" y="609"/>
    </contour>
  </outline>
</glyph>
<glyph name="guillemotright" format="1">
  <advance width="1696"/>
  <unicode hex="00BB"/>
  <outline>
    <contour>
      <point x="855" y="230" type="curve" smooth="yes"/>
      <point x="872" y="230"/>
      <point x="892" y="237"/>
      <point x="911" y="251" type="curve" smooth="yes"/>
      <point x="1422" y="639" type="line" smooth="yes"/>
      <point x="1474" y="678"/>
      <point x="1499" y="729"/>
      <point x="1499" y="779" type="curve" smooth="yes"/>
      <point x="1499" y="833"/>
      <point x="1472" y="883"/>
      <point x="1422" y="921" type="curve" smooth="yes"/>
      <point x="911" y="1308" type="line" smooth="yes"/>
      <point x="892.058" y="1321.78"/>
      <point x="876.081" y="1329.62"/>
      <point x="861.155" y="1329.62" type="curve" smooth="yes"/>
      <point x="858.745" y="1329.62"/>
      <point x="856.363" y="1329.42"/>
      <point x="854" y="1329" type="curve" smooth="yes"/>
      <point x="852.353" y="1329.12"/>
      <point x="850.721" y="1329.18"/>
      <point x="849.105" y="1329.18" type="curve" smooth="yes"/>
      <point x="811.499" y="1329.18"/>
      <point x="783" y="1296.23"/>
      <point x="783" y="1255" type="curve"/>
      <point x="783" y="1238"/>
      <point x="789" y="1215"/>
      <point x="808" y="1195" type="curve" smooth="yes"/>
      <point x="1194" y="780" type="line"/>
      <point x="808" y="365" type="line" smooth="yes"/>
      <point x="791" y="346"/>
      <point x="784" y="325"/>
      <point x="784" y="305" type="curve" smooth="yes"/>
      <point x="784" y="265"/>
      <point x="814" y="230"/>
    </contour>
    <contour>
      <point x="233" y="230" type="curve" smooth="yes"/>
      <point x="250" y="230"/>
      <point x="270" y="236"/>
      <point x="290" y="251" type="curve" smooth="yes"/>
      <point x="800" y="639" type="line"/>
      <point x="853" y="678"/>
      <point x="878" y="729"/>
      <point x="878" y="779" type="curve" smooth="yes"/>
      <point x="877" y="833"/>
      <point x="851" y="883"/>
      <point x="800" y="921" type="curve" smooth="yes"/>
      <point x="290" y="1308" type="line" smooth="yes"/>
      <point x="271.058" y="1321.78"/>
      <point x="254.34" y="1329.62"/>
      <point x="239.846" y="1329.62" type="curve" smooth="yes"/>
      <point x="237.506" y="1329.62"/>
      <point x="235.224" y="1329.42"/>
      <point x="233" y="1329" type="curve" smooth="yes"/>
      <point x="231.312" y="1329.12"/>
      <point x="229.642" y="1329.18"/>
      <point x="227.992" y="1329.18" type="curve" smooth="yes"/>
      <point x="189.58" y="1329.18"/>
      <point x="162" y="1296.23"/>
      <point x="162" y="1255" type="curve" smooth="yes"/>
      <point x="162" y="1238"/>
      <point x="167" y="1215"/>
      <point x="186" y="1195" type="curve" smooth="yes"/>
      <point x="572" y="780" type="line"/>
      <point x="186" y="365" type="line" smooth="yes"/>
      <point x="169" y="346"/>
      <point x="163" y="325"/>
      <point x="163" y="305" type="curve" smooth="yes"/>
      <point x="163" y="265"/>
      <point x="193" y="230"/>
    </contour>
  </outline>
</glyph>
<glyph name="onehalf" format="1">
  <advance width="2486"/>
  <unicode hex="00BD"/>
  <outline>
    <contour>
      <point x="659" y="0" type="line"/>
      <point x="868" y="0" type="line"/>
      <point x="1472" y="1550" type="line"/>
      <point x="1167" y="1550" type="line"/>
    </contour>
    <contour>
      <point x="253" y="487" type="line"/>
      <point x="511" y="487" type="line"/>
      <point x="511" y="1527" type="line"/>
      <point x="329" y="1527" type="line"/>
      <point x="272" y="1492"/>
      <point x="199" y="1472"/>
      <point x="109" y="1472" type="curve"/>
      <point x="109" y="1341" type="line"/>
      <point x="253" y="1341" type="line"/>
    </contour>
    <contour>
      <point x="1959.31" y="911.018" type="curve" smooth="yes"/>
      <point x="2083.25" y="911.018"/>
      <point x="2121" y="885.037"/>
      <point x="2121" y="833" type="curve" smooth="yes"/>
      <point x="2121" y="733" type="line" smooth="yes"/>
      <point x="2121" y="653"/>
      <point x="2054" y="628"/>
      <point x="1915" y="586" type="curve" smooth="yes"/>
      <point x="1662" y="505"/>
      <point x="1555" y="408"/>
      <point x="1555" y="146" type="curve" smooth="yes"/>
      <point x="1555" y="0" type="line"/>
      <point x="2345" y="0" type="line"/>
      <point x="2345" y="162" type="line"/>
      <point x="1798" y="162" type="line"/>
      <point x="1798" y="266"/>
      <point x="1830" y="331"/>
      <point x="1997" y="388" type="curve" smooth="yes"/>
      <point x="2167" y="450"/>
      <point x="2372" y="500"/>
      <point x="2372" y="742" type="curve" smooth="yes"/>
      <point x="2372" y="1008"/>
      <point x="2224" y="1075"/>
      <point x="1962" y="1075" type="curve" smooth="yes"/>
      <point x="1719" y="1075"/>
      <point x="1548" y="1014"/>
      <point x="1550" y="744" type="curve"/>
      <point x="1551" y="702" type="line"/>
      <point x="1804" y="715" type="line"/>
      <point x="1804" y="821" type="line" smooth="yes"/>
      <point x="1804" y="870.402"/>
      <point x="1831.33" y="911.018"/>
    </contour>
  </outline>
</glyph>
<glyph name="Thorn" format="1">
  <advance width="1439"/>
  <unicode hex="00DE"/>
  <outline>
    <contour>
      <point x="522" y="527" type="line"/>
      <point x="522" y="1142" type="line"/>
      <point x="730" y="1142" type="line" smooth="yes"/>
      <point x="946" y="1142"/>
      <point x="973" y="1008"/>
      <point x="973" y="832" type="curve" smooth="yes"/>
      <point x="973" y="701"/>
      <point x="970" y="527"/>
      <point x="789" y="527" type="curve" smooth="yes"/>
    </contour>
    <contour>
      <point x="181" y="0" type="line"/>
      <point x="522" y="0" type="line"/>
      <point x="522" y="336" type="line"/>
      <point x="712" y="336" type="line" smooth="yes"/>
      <point x="983" y="336"/>
      <point x="1312" y="341"/>
      <point x="1312" y="765" type="curve" smooth="yes"/>
      <point x="1312" y="918" type="line"/>
      <point x="1307" y="1268"/>
      <point x="1133" y="1329"/>
      <point x="729" y="1329" type="curve" smooth="yes"/>
      <point x="522" y="1329" type="line"/>
      <point x="522" y="1528" type="line"/>
      <point x="181" y="1528" type="line"/>
    </contour>
  </outline>
</glyph>
<glyph name="divide" format="1">
  <advance width="891"/>
  <unicode hex="00F7"/>
  <outline>
    <contour>
      <point x="447" y="925" type="curve" smooth="yes"/>
      <point x="535" y="925"/>
      <point x="587" y="991"/>
      <point x="587" y="1079" type="curve" smooth="yes"/>
      <point x="587" y="1157"/>
      <point x="531" y="1233"/>
      <point x="461" y="1233" type="curve" smooth="yes"/>
      <point x="360" y="1233"/>
      <point x="307" y="1175"/>
      <point x="307" y="1079" type="curve" smooth="yes"/>
      <point x="307" y="984"/>
      <point x="365" y="925"/>
    </contour>
    <contour>
      <point x="103" y="614" type="line"/>
      <point x="790" y="614" type="line"/>
      <point x="790" y="753" type="line"/>
      <point x="103" y="753" type="line"/>
    </contour>
    <contour>
      <point x="447" y="134" type="curve" smooth="yes"/>
      <point x="533" y="134"/>
      <point x="587" y="203"/>
      <point x="587" y="288" type="curve" smooth="yes"/>
      <point x="587" y="366"/>
      <point x="531" y="442"/>
      <point x="461" y="442" type="curve" smooth="yes"/>
      <point x="360" y="442"/>
      <point x="307" y="383"/>
      <point x="307" y="288" type="curve" smooth="yes"/>
      <point x="307" y="193"/>
      <point x="366" y="134"/>
    </contour>
  </outline>
</glyph>
<glyph name="oslash" format="1">
  <advance width="1631"/>
  <unicode hex="00F8"/>
  <outline>
    <component base="o"/>
    <contour>
      <point x="670" y="1181" type="move" name="top"/>
    </contour>
    <contour>
      <point x="134" y="-8" type="line"/>
      <point x="1257" y="1131" type="line"/>
      <point x="1199" y="1189" type="line"/>
      <point x="76" y="50" type="line"/>
    </contour>
  </outline>
</glyph>
<glyph name="lslash" format="1">
  <advance width="747"/>
  <unicode hex="0142"/>
  <outline>
    <component base="l" xOffset="20"/>
    <contour>
      <point x="59" y="746" type="line"/>
      <point x="692" y="987" type="line"/>
      <point x="692" y="1202" type="line"/>
      <point x="59" y="963" type="line"/>
    </contour>
  </outline>
</glyph>
<glyph name="eng" format="1">
  <advance width="1337"/>
  <unicode hex="014B"/>
  <outline>
    <contour>
      <point x="605" y="-450" type="line"/>
      <point x="1044" y="-450"/>
      <point x="1180" y="-323"/>
      <point x="1182" y="68" type="curve"/>
      <point x="1182" y="726" type="line" smooth="yes"/>
      <point x="1182" y="1051"/>
      <point x="1108" y="1197"/>
      <point x="812" y="1198" type="curve" smooth="yes"/>
      <point x="664" y="1198"/>
      <point x="525" y="1154"/>
      <point x="480" y="1049" type="curve"/>
      <point x="455" y="1168" type="line"/>
      <point x="159" y="1168" type="line"/>
      <point x="159" y="0" type="line"/>
      <point x="487" y="0" type="line"/>
      <point x="487" y="894" type="line" smooth="yes"/>
      <point x="487" y="987"/>
      <point x="542" y="1030"/>
      <point x="709" y="1030" type="curve" smooth="yes"/>
      <point x="817" y="1030"/>
      <point x="854" y="1018"/>
      <point x="854" y="818" type="curve" smooth="yes"/>
      <point x="854" y="-127" type="line"/>
      <point x="838" y="-201"/>
      <point x="793" y="-246"/>
      <point x="584" y="-246" type="curve"/>
    </contour>
  </outline>
</glyph>
<glyph name="OE" format="1">
  <advance width="2024"/>
  <unicode hex="0152"/>
  <outline>
    <contour>
      <point x="1004" y="1527" type="move" name="top"/>
    </contour>
    <contour>
      <point x="743" y="181" type="line" smooth="yes"/>
      <point x="584" y="181"/>
      <point x="505" y="201"/>
      <point x="489" y="319" type="curve" smooth="yes"/>
      <point x="481.518" y="370.748"/>
      <point x="477.535" y="611.416"/>
      <point x="477.535" y="838.39" type="curve" smooth="yes"/>
      <point x="477.535" y="975.462"/>
      <point x="478.988" y="1107.54"/>
      <point x="482" y="1190" type="curve" smooth="yes"/>
      <point x="485" y="1318"/>
      <point x="526" y="1346"/>
      <point x="743" y="1346" type="curve" smooth="yes"/>
      <point x="1006" y="1346" type="line"/>
      <point x="1006" y="181" type="line"/>
    </contour>
    <contour>
      <point x="738" y="0" type="curve" smooth="yes"/>
      <point x="1896" y="0" type="line"/>
      <point x="1909" y="185" type="line"/>
      <point x="1359" y="185" type="line"/>
      <point x="1359" y="701" type="line"/>
      <point x="1833" y="701" type="line"/>
      <point x="1833" y="893" type="line"/>
      <point x="1359" y="893" type="line"/>
      <point x="1359" y="1342" type="line"/>
      <point x="1903" y="1342" type="line"/>
      <point x="1890" y="1527" type="line"/>
      <point x="738" y="1527" type="line" smooth="yes"/>
      <point x="282" y="1527"/>
      <point x="142" y="1421"/>
      <point x="142" y="957" type="curve" smooth="yes"/>
      <point x="142" y="604" type="line"/>
      <point x="143" y="106"/>
      <point x="248" y="0"/>
    </contour>
  </outline>
</glyph>
<glyph name="apostrophemod" format="1">
  <advance width="744"/>
  <unicode hex="02BC"/>
  <outline>
    <contour>
      <point x="190" y="1418" type="curve" smooth="yes"/>
      <point x="374" y="1418"/>
      <point x="478" y="1619"/>
      <point x="478" y="1793" type="curve" smooth="yes"/>
      <point x="478" y="1900"/>
      <point x="420" y="1994"/>
      <point x="313" y="1994" type="curve" smooth="yes"/>
      <point x="216" y="1994"/>
      <point x="146" y="1925"/>
      <point x="146" y="1823" type="curve" smooth="yes"/>
      <point x="146" y="1723"/>
      <point x="214" y="1653"/>
      <point x="302" y="1650" type="curve"/>
      <point x="300" y="1565"/>
      <point x="221" y="1504"/>
      <point x="135" y="1504" type="curve"/>
      <point x="135" y="1421" type="line"/>
      <point x="148" y="1419"/>
      <point x="166" y="1418"/>
    </contour>
  </outline>
</glyph>
<glyph name="circumflex" format="1">
  <advance width="982"/>
  <unicode hex="02C6"/>
  <outline>
    <contour>
      <point x="536" y="1168" type="move" name="_top"/>
    </contour>
    <contour>
      <point x="829.671" y="1332.24" type="curve" smooth="yes"/>
      <point x="856.811" y="1332.24"/>
      <point x="878.105" y="1352.14"/>
      <point x="878.105" y="1379.39" type="curve" smooth="yes"/>
      <point x="878.105" y="1390.42"/>
      <point x="874.799" y="1402.12"/>
      <point x="868" y="1413" type="curve" smooth="yes"/>
      <point x="651" y="1757" type="line"/>
      <point x="622" y="1800"/>
      <point x="582" y="1816"/>
      <point x="540" y="1816" type="curve" smooth="yes"/>
      <point x="498" y="1816"/>
      <point x="457" y="1799"/>
      <point x="429" y="1757" type="curve"/>
      <point x="212" y="1413" type="line" smooth="yes"/>
      <point x="204.935" y="1401.96"/>
      <point x="201.574" y="1390.53"/>
      <point x="201.574" y="1379.92" type="curve" smooth="yes"/>
      <point x="201.574" y="1353.35"/>
      <point x="224.751" y="1332.71"/>
      <point x="251.503" y="1332.71" type="curve" smooth="yes"/>
      <point x="262.952" y="1332.71"/>
      <point x="274.584" y="1336.53"/>
      <point x="284" y="1345" type="curve" smooth="yes"/>
      <point x="540" y="1581" type="line"/>
      <point x="796" y="1345" type="line" smooth="yes"/>
      <point x="805.707" y="1336.26"/>
      <point x="817.769" y="1332.24"/>
    </contour>
  </outline>
</glyph>
<glyph name="hungarumlaut" format="1">
  <advance width="1354"/>
  <unicode hex="02DD"/>
  <outline>
    <contour>
      <point x="550" y="1168" type="move" name="_top"/>
    </contour>
    <contour>
      <point x="761" y="1344" type="curve" smooth="yes"/>
      <point x="834" y="1366"/>
      <point x="1174" y="1481"/>
      <point x="1227" y="1509" type="curve" smooth="yes"/>
      <point x="1287" y="1539"/>
      <point x="1313" y="1592"/>
      <point x="1313" y="1640" type="curve" smooth="yes"/>
      <point x="1313" y="1706"/>
      <point x="1264" y="1768"/>
      <point x="1185" y="1768" type="curve" smooth="yes"/>
      <point x="1151" y="1768"/>
      <point x="1118" y="1753"/>
      <point x="1087" y="1732" type="curve" smooth="yes"/>
      <point x="1027" y="1691"/>
      <point x="786" y="1446"/>
      <point x="729" y="1394" type="curve" smooth="yes"/>
      <point x="715" y="1382"/>
      <point x="715" y="1358"/>
      <point x="722" y="1351" type="curve" smooth="yes"/>
      <point x="726.5" y="1346.5"/>
      <point x="740" y="1342.56"/>
      <point x="751.109" y="1342.56" type="curve" smooth="yes"/>
      <point x="754.812" y="1342.56"/>
      <point x="758.25" y="1343"/>
    </contour>
    <contour>
      <point x="189.402" y="1367.02" type="curve" smooth="yes"/>
      <point x="189.402" y="1348.59"/>
      <point x="203.588" y="1342.7"/>
      <point x="223.67" y="1342.7" type="curve" smooth="yes"/>
      <point x="227.082" y="1342.7"/>
      <point x="230.295" y="1343.1"/>
      <point x="233" y="1344" type="curve" smooth="yes"/>
      <point x="306" y="1366"/>
      <point x="646" y="1481"/>
      <point x="699" y="1509" type="curve" smooth="yes"/>
      <point x="759" y="1539"/>
      <point x="785" y="1592"/>
      <point x="785" y="1640" type="curve" smooth="yes"/>
      <point x="785" y="1706"/>
      <point x="737" y="1768"/>
      <point x="658" y="1768" type="curve" smooth="yes"/>
      <point x="623" y="1768"/>
      <point x="591" y="1753"/>
      <point x="559" y="1732" type="curve" smooth="yes"/>
      <point x="499" y="1691"/>
      <point x="258" y="1446"/>
      <point x="201" y="1394" type="curve" smooth="yes"/>
      <point x="192.799" y="1386.97"/>
      <point x="189.402" y="1376.17"/>
    </contour>
  </outline>
</glyph>
<glyph name="dblgravecmb" format="1">
  <advance width="1355"/>
  <unicode hex="030F"/>
  <outline>
    <contour>
      <point x="946" y="1168" type="move" name="_top"/>
    </contour>
    <contour>
      <point x="1276.21" y="1342.7" type="curve" smooth="yes"/>
      <point x="1295.56" y="1342.7"/>
      <point x="1310.6" y="1348.56"/>
      <point x="1310.6" y="1367.02" type="curve" smooth="yes"/>
      <point x="1310.6" y="1376.17"/>
      <point x="1307.2" y="1386.97"/>
      <point x="1299" y="1394" type="curve" smooth="yes"/>
      <point x="1242" y="1446"/>
      <point x="1001" y="1691"/>
      <point x="941" y="1732" type="curve" smooth="yes"/>
      <point x="909" y="1753"/>
      <point x="876" y="1768"/>
      <point x="842" y="1768" type="curve" smooth="yes"/>
      <point x="763" y="1768"/>
      <point x="714" y="1706"/>
      <point x="714" y="1640" type="curve" smooth="yes"/>
      <point x="714" y="1592"/>
      <point x="741" y="1539"/>
      <point x="801" y="1509" type="curve" smooth="yes"/>
      <point x="854" y="1481"/>
      <point x="1194" y="1366"/>
      <point x="1267" y="1344" type="curve" smooth="yes"/>
      <point x="1269.7" y="1343.1"/>
      <point x="1272.87" y="1342.7"/>
    </contour>
    <contour>
      <point x="748.891" y="1342.56" type="curve" smooth="yes"/>
      <point x="768.45" y="1342.56"/>
      <point x="782.598" y="1347.59"/>
      <point x="782.598" y="1366.39" type="curve" smooth="yes"/>
      <point x="782.598" y="1375.82"/>
      <point x="779.201" y="1386.97"/>
      <point x="771" y="1394" type="curve" smooth="yes"/>
      <point x="714" y="1446"/>
      <point x="473" y="1691"/>
      <point x="413" y="1732" type="curve" smooth="yes"/>
      <point x="381" y="1753"/>
      <point x="349" y="1768"/>
      <point x="314" y="1768" type="curve" smooth="yes"/>
      <point x="235" y="1768"/>
      <point x="187" y="1706"/>
      <point x="187" y="1640" type="curve" smooth="yes"/>
      <point x="187" y="1592"/>
      <point x="213" y="1539"/>
      <point x="273" y="1509" type="curve" smooth="yes"/>
      <point x="326" y="1481"/>
      <point x="666" y="1366"/>
      <point x="739" y="1344" type="curve" smooth="yes"/>
      <point x="741.75" y="1343"/>
      <point x="745.188" y="1342.56"/>
    </contour>
  </outline>
</glyph>
<glyph name="commaturnedabovecomb" format="1">
  <advance width="744"/>
  <unicode hex="0312"/>
  <outline>
    <contour>
      <point x="407" y="1168" type="move" name="_top"/>
    </contour>
    <contour>
      <point x="408" y="1313" type="curve" smooth="yes"/>
      <point x="506" y="1313"/>
      <point x="580" y="1401"/>
      <point x="580" y="1484" type="curve" smooth="yes"/>
      <point x="580" y="1600"/>
      <point x="519" y="1661"/>
      <point x="425" y="1668" type="curve"/>
      <point x="427" y="1755"/>
      <point x="485" y="1816"/>
      <point x="563" y="1818" type="curve"/>
      <point x="563" y="1895" type="line"/>
      <point x="373" y="1895"/>
      <point x="222" y="1725"/>
      <point x="222" y="1537" type="curve" smooth="yes"/>
      <point x="222" y="1407"/>
      <point x="289" y="1313"/>
    </contour>
  </outline>
</glyph>
<glyph name="commaaccent" format="1">
  <advance width="681"/>
  <unicode hex="0326"/>
  <outline>
    <contour>
      <point x="370" y="0" type="move" name="_bot"/>
    </contour>
    <contour>
      <point x="214" y="-706" type="line"/>
      <point x="410" y="-706"/>
      <point x="554" y="-544"/>
      <point x="554" y="-356" type="curve" smooth="yes"/>
      <point x="554" y="-226"/>
      <point x="492" y="-150"/>
      <point x="374" y="-150" type="curve" smooth="yes"/>
      <point x="275" y="-150"/>
      <point x="197" y="-209"/>
      <point x="197" y="-311" type="curve" smooth="yes"/>
      <point x="197" y="-414"/>
      <point x="258" y="-473"/>
      <point x="352" y="-479" type="curve"/>
      <point x="350" y="-566"/>
      <point x="292" y="-627"/>
      <point x="214" y="-629" type="curve"/>
    </contour>
  </outline>
</glyph>
<glyph name="Delta" format="1">
  <advance width="1439"/>
  <unicode hex="0394"/>
  <outline>
    <contour>
      <point x="259" y="179" type="line"/>
      <point x="655" y="1323" type="line"/>
      <point x="1053" y="179" type="line"/>
    </contour>
    <contour>
      <point x="79" y="0" type="line"/>
      <point x="1376" y="0" type="line"/>
      <point x="808" y="1526" type="line"/>
      <point x="623" y="1526" type="line"/>
    </contour>
  </outline>
</glyph>
<glyph name="pi" format="1">
  <advance width="1576"/>
  <unicode hex="03C0"/>
  <outline>
    <contour>
      <point x="911.963" y="323.616" type="curve" smooth="yes"/>
      <point x="911.963" y="87.0348"/>
      <point x="1061.78" y="-28"/>
      <point x="1228" y="-28" type="curve" smooth="yes"/>
      <point x="1301" y="-28"/>
      <point x="1387" y="-4"/>
      <point x="1467" y="51" type="curve"/>
      <point x="1467" y="179" type="line"/>
      <point x="1423.9" y="166.429"/>
      <point x="1379.19" y="158.696"/>
      <point x="1342.27" y="158.696" type="curve" smooth="yes"/>
      <point x="1218.42" y="158.696"/>
      <point x="1150.77" y="237.95"/>
      <point x="1150.77" y="436.492" type="curve" smooth="yes"/>
      <point x="1150.77" y="569.054"/>
      <point x="1176.8" y="726.855"/>
      <point x="1228" y="944" type="curve"/>
      <point x="1456" y="944" type="line"/>
      <point x="1461" y="1168" type="line"/>
      <point x="498" y="1168" type="line" smooth="yes"/>
      <point x="232" y="1168"/>
      <point x="117" y="1038"/>
      <point x="117" y="797" type="curve"/>
      <point x="254" y="797" type="line"/>
      <point x="267" y="881"/>
      <point x="311" y="944"/>
      <point x="399" y="944" type="curve" smooth="yes"/>
      <point x="514" y="944" type="line"/>
      <point x="416" y="415" type="line" smooth="yes"/>
      <point x="375" y="193"/>
      <point x="262" y="157"/>
      <point x="165" y="157" type="curve"/>
      <point x="165" y="0" type="line"/>
      <point x="550" y="0"/>
      <point x="634" y="98"/>
      <point x="657" y="343" type="curve" smooth="yes"/>
      <point x="713" y="944" type="line"/>
      <point x="1059" y="944" type="line"/>
      <point x="989.87" y="744.511"/>
      <point x="911.963" y="525.517"/>
    </contour>
  </outline>
</glyph>
<glyph name="endash" format="1">
  <advance width="1159"/>
  <unicode hex="2013"/>
  <outline>
    <contour>
      <point x="168" y="538" type="line"/>
      <point x="986" y="538" type="line"/>
      <point x="986" y="813" type="line"/>
      <point x="168" y="813" type="line"/>
    </contour>
  </outline>
</glyph>
<glyph name="dagger" format="1">
  <advance width="1209"/>
  <unicode hex="2020"/>
  <outline>
    <contour>
      <point x="602" y="7" type="curve" smooth="yes"/>
      <point x="681" y="7"/>
      <point x="737" y="62"/>
      <point x="737" y="173" type="curve" smooth="yes"/>
      <point x="737" y="313"/>
      <point x="703" y="516"/>
      <point x="650" y="963" type="curve"/>
      <point x="768" y="917"/>
      <point x="865" y="883"/>
      <point x="923" y="883" type="curve" smooth="yes"/>
      <point x="996" y="883"/>
      <point x="1040" y="929"/>
      <point x="1040" y="994" type="curve" smooth="yes"/>
      <point x="1040" y="1071"/>
      <point x="1005" y="1124"/>
      <point x="933" y="1124" type="curve" smooth="yes"/>
      <point x="868" y="1124"/>
      <point x="766" y="1088"/>
      <point x="644" y="1041" type="curve"/>
      <point x="695" y="1220"/>
      <point x="734" y="1350"/>
      <point x="734" y="1414" type="curve" smooth="yes"/>
      <point x="734" y="1532"/>
      <point x="676" y="1578"/>
      <point x="602" y="1578" type="curve" smooth="yes"/>
      <point x="538" y="1578"/>
      <point x="473" y="1534"/>
      <point x="473" y="1419" type="curve" smooth="yes"/>
      <point x="473" y="1345"/>
      <point x="508" y="1216"/>
      <point x="559" y="1043" type="curve"/>
      <point x="431" y="1093"/>
      <point x="361" y="1124"/>
      <point x="269" y="1124" type="curve" smooth="yes"/>
      <point x="205" y="1124"/>
      <point x="169" y="1067"/>
      <point x="169" y="1001" type="curve" smooth="yes"/>
      <point x="169" y="930"/>
      <point x="208" y="883"/>
      <point x="286" y="883" type="curve" smooth="yes"/>
      <point x="362" y="883"/>
      <point x="513" y="945"/>
      <point x="554" y="961" type="curve"/>
      <point x="510" y="588"/>
      <point x="470" y="356"/>
      <point x="470" y="172" type="curve" smooth="yes"/>
      <point x="470" y="66"/>
      <point x="520" y="7"/>
    </contour>
  </outline>
</glyph>
<glyph name="daggerdbl" format="1">
  <advance width="1298"/>
  <unicode hex="2021"/>
  <outline>
    <contour>
      <point x="646" y="-38" type="curve" smooth="yes"/>
      <point x="737" y="-38"/>
      <point x="809" y="19"/>
      <point x="809" y="120" type="curve" smooth="yes"/>
      <point x="809" y="206"/>
      <point x="755" y="347"/>
      <point x="709" y="473" type="curve"/>
      <point x="774" y="449"/>
      <point x="890" y="384"/>
      <point x="1011" y="384" type="curve" smooth="yes"/>
      <point x="1081" y="384"/>
      <point x="1121" y="446"/>
      <point x="1121" y="511" type="curve" smooth="yes"/>
      <point x="1121" y="585"/>
      <point x="1077" y="638"/>
      <point x="997" y="638" type="curve" smooth="yes"/>
      <point x="936" y="638"/>
      <point x="835" y="601"/>
      <point x="712" y="551" type="curve"/>
      <point x="712" y="989" type="line"/>
      <point x="831" y="939"/>
      <point x="931" y="902"/>
      <point x="995" y="902" type="curve" smooth="yes"/>
      <point x="1073" y="902"/>
      <point x="1121" y="952"/>
      <point x="1121" y="1020" type="curve" smooth="yes"/>
      <point x="1121" y="1103"/>
      <point x="1082" y="1157"/>
      <point x="1003" y="1157" type="curve" smooth="yes"/>
      <point x="942" y="1157"/>
      <point x="839" y="1118"/>
      <point x="709" y="1067" type="curve"/>
      <point x="755" y="1204"/>
      <point x="809" y="1336"/>
      <point x="809" y="1422" type="curve" smooth="yes"/>
      <point x="809" y="1520"/>
      <point x="737" y="1578"/>
      <point x="646" y="1578" type="curve" smooth="yes"/>
      <point x="555" y="1578"/>
      <point x="486" y="1522"/>
      <point x="486" y="1420" type="curve" smooth="yes"/>
      <point x="486" y="1325"/>
      <point x="553" y="1141"/>
      <point x="583" y="1069" type="curve"/>
      <point x="455" y="1123"/>
      <point x="359" y="1157"/>
      <point x="301" y="1157" type="curve" smooth="yes"/>
      <point x="220" y="1157"/>
      <point x="176" y="1103"/>
      <point x="176" y="1028" type="curve" smooth="yes"/>
      <point x="176" y="952"/>
      <point x="217" y="902"/>
      <point x="301" y="902" type="curve" smooth="yes"/>
      <point x="358" y="902"/>
      <point x="454" y="935"/>
      <point x="581" y="987" type="curve"/>
      <point x="581" y="553" type="line"/>
      <point x="456" y="605"/>
      <point x="361" y="638"/>
      <point x="302" y="638" type="curve" smooth="yes"/>
      <point x="218" y="638"/>
      <point x="176" y="587"/>
      <point x="176" y="511" type="curve" smooth="yes"/>
      <point x="176" y="436"/>
      <point x="220" y="384"/>
      <point x="301" y="384" type="curve" smooth="yes"/>
      <point x="360" y="384"/>
      <point x="456" y="418"/>
      <point x="583" y="471" type="curve"/>
      <point x="524" y="299"/>
      <point x="486" y="206"/>
      <point x="486" y="119" type="curve" smooth="yes"/>
      <point x="486" y="18"/>
      <point x="556" y="-38"/>
    </contour>
  </outline>
</glyph>
<glyph name="bullet" format="1">
  <advance width="1089"/>
  <unicode hex="2022"/>
  <outline>
    <contour>
      <point x="552" y="262" type="curve" smooth="yes"/>
      <point x="821" y="262"/>
      <point x="936" y="446"/>
      <point x="936" y="686" type="curve" smooth="yes"/>
      <point x="936" y="934"/>
      <point x="814" y="1108"/>
      <point x="554" y="1108" type="curve" smooth="yes"/>
      <point x="281" y="1108"/>
      <point x="150" y="939"/>
      <point x="150" y="684" type="curve" smooth="yes"/>
      <point x="150" y="440"/>
      <point x="271" y="262"/>
    </contour>
  </outline>
</glyph>
<glyph name="ellipsis" format="1">
  <advance width="1791"/>
  <unicode hex="2026"/>
  <outline>
    <contour>
      <point x="1489" y="-38" type="curve" smooth="yes"/>
      <point x="1582" y="-38"/>
      <point x="1651" y="30"/>
      <point x="1651" y="136" type="curve" smooth="yes"/>
      <point x="1651" y="236"/>
      <point x="1579" y="310"/>
      <point x="1498" y="310" type="curve" smooth="yes"/>
      <point x="1395" y="310"/>
      <point x="1326" y="246"/>
      <point x="1326" y="136" type="curve" smooth="yes"/>
      <point x="1326" y="26"/>
      <point x="1399" y="-38"/>
    </contour>
    <contour>
      <point x="896" y="-38" type="curve" smooth="yes"/>
      <point x="988" y="-38"/>
      <point x="1057" y="30"/>
      <point x="1057" y="136" type="curve" smooth="yes"/>
      <point x="1057" y="245"/>
      <point x="984" y="310"/>
      <point x="894" y="310" type="curve" smooth="yes"/>
      <point x="805" y="310"/>
      <point x="732" y="241"/>
      <point x="732" y="137" type="curve" smooth="yes"/>
      <point x="732" y="33"/>
      <point x="805" y="-38"/>
    </contour>
    <contour>
      <point x="301" y="-38" type="curve" smooth="yes"/>
      <point x="394" y="-38"/>
      <point x="463" y="30"/>
      <point x="463" y="136" type="curve" smooth="yes"/>
      <point x="463" y="240"/>
      <point x="390" y="310"/>
      <point x="301" y="310" type="curve" smooth="yes"/>
      <point x="207" y="310"/>
      <point x="138" y="241"/>
      <point x="138" y="136" type="curve" smooth="yes"/>
      <point x="138" y="30"/>
      <point x="212" y="-38"/>
    </contour>
  </outline>
</glyph>
<glyph name="guilsinglright" format="1">
  <advance width="960"/>
  <unicode hex="203A"/>
  <outline>
    <contour>
      <point x="192" y="230" type="curve" smooth="yes"/>
      <point x="209" y="230"/>
      <point x="228" y="236"/>
      <point x="248" y="251" type="curve" smooth="yes"/>
      <point x="758" y="639" type="line"/>
      <point x="811" y="678"/>
      <point x="836" y="729"/>
      <point x="836" y="779" type="curve" smooth="yes"/>
      <point x="836" y="833"/>
      <point x="809" y="883"/>
      <point x="758" y="921" type="curve" smooth="yes"/>
      <point x="248" y="1308" type="line" smooth="yes"/>
      <point x="229.058" y="1321.78"/>
      <point x="213.081" y="1329.62"/>
      <point x="198.155" y="1329.62" type="curve" smooth="yes"/>
      <point x="195.745" y="1329.62"/>
      <point x="193.363" y="1329.42"/>
      <point x="191" y="1329" type="curve" smooth="yes"/>
      <point x="189.312" y="1329.12"/>
      <point x="187.642" y="1329.18"/>
      <point x="185.992" y="1329.18" type="curve" smooth="yes"/>
      <point x="147.58" y="1329.18"/>
      <point x="120" y="1296.23"/>
      <point x="120" y="1255" type="curve" smooth="yes"/>
      <point x="120" y="1238"/>
      <point x="125" y="1215"/>
      <point x="145" y="1195" type="curve"/>
      <point x="531" y="780" type="line"/>
      <point x="145" y="365" type="line" smooth="yes"/>
      <point x="128" y="346"/>
      <point x="121" y="325"/>
      <point x="121" y="305" type="curve" smooth="yes"/>
      <point x="121" y="265"/>
      <point x="151" y="230"/>
    </contour>
  </outline>
</glyph>
<glyph name="Euro" format="1">
  <advance width="1357"/>
  <unicode hex="20AC"/>
  <outline>
    <contour>
      <point x="805" y="-30" type="curve" smooth="yes"/>
      <point x="1124" y="-30"/>
      <point x="1333" y="29"/>
      <point x="1355" y="344" type="curve" smooth="yes"/>
      <point x="1358" y="365"/>
      <point x="1360" y="435"/>
      <point x="1361" y="459" type="curve"/>
      <point x="1037" y="476" type="line"/>
      <point x="1030" y="394"/>
      <point x="1030" y="245"/>
      <point x="1004" y="212" type="curve" smooth="yes"/>
      <point x="979" y="179"/>
      <point x="896" y="166"/>
      <point x="784" y="166" type="curve" smooth="yes"/>
      <point x="590" y="166"/>
      <point x="508" y="201"/>
      <point x="503" y="269" type="curve" smooth="yes"/>
      <point x="499" y="325"/>
      <point x="498" y="511"/>
      <point x="497" y="568" type="curve"/>
      <point x="929" y="568" type="line"/>
      <point x="949" y="687" type="line"/>
      <point x="497" y="687" type="line"/>
      <point x="497" y="831" type="line"/>
      <point x="929" y="831" type="line"/>
      <point x="949" y="949" type="line"/>
      <point x="498" y="949" type="line"/>
      <point x="499" y="1009"/>
      <point x="500" y="1197"/>
      <point x="503" y="1257" type="curve" smooth="yes"/>
      <point x="508" y="1350"/>
      <point x="620" y="1359"/>
      <point x="784" y="1359" type="curve" smooth="yes"/>
      <point x="874" y="1359"/>
      <point x="955" y="1358"/>
      <point x="985" y="1332" type="curve" smooth="yes"/>
      <point x="1015" y="1306"/>
      <point x="1026" y="1158"/>
      <point x="1035" y="1056" type="curve"/>
      <point x="1361" y="1078" type="line"/>
      <point x="1359" y="1096"/>
      <point x="1357" y="1164"/>
      <point x="1355" y="1180" type="curve" smooth="yes"/>
      <point x="1329" y="1507"/>
      <point x="1110" y="1556"/>
      <point x="793" y="1556" type="curve" smooth="yes"/>
      <point x="390" y="1556"/>
      <point x="177" y="1494"/>
      <point x="159" y="1123" type="curve" smooth="yes"/>
      <point x="157" y="1095"/>
      <point x="155" y="982"/>
      <point x="155" y="949" type="curve"/>
      <point x="11" y="949" type="line"/>
      <point x="-10" y="831" type="line"/>
      <point x="153" y="831" type="line"/>
      <point x="153" y="687" type="line"/>
      <point x="11" y="687" type="line"/>
      <point x="-10" y="568" type="line"/>
      <point x="155" y="568" type="line"/>
      <point x="156" y="542"/>
      <point x="157" y="435"/>
      <point x="159" y="412" type="curve" smooth="yes"/>
      <point x="178" y="56"/>
      <point x="403" y="-30"/>
    </contour>
  </outline>
</glyph>
<glyph name="uni2113" format="1">
  <advance width="1182"/>
  <unicode hex="2113"/>
  <outline>
    <contour>
      <point x="816.053" y="1548.06" type="curve" smooth="yes"/>
      <point x="923.43" y="1548.06"/>
      <point x="967.55" y="1481.88"/>
      <point x="967.55" y="1361.04" type="curve" smooth="yes"/>
      <point x="967.55" y="1136.91"/>
      <point x="774.062" y="984.933"/>
      <point x="607" y="877" type="curve"/>
      <point x="607" y="1199" type="line" smooth="yes"/>
      <point x="607" y="1477.66"/>
      <point x="696.103" y="1548.06"/>
    </contour>
    <contour>
      <point x="287" y="281" type="line" smooth="yes"/>
      <point x="287" y="15.6167"/>
      <point x="444.58" y="-19.5066"/>
      <point x="688.347" y="-19.5066" type="curve" smooth="yes"/>
      <point x="782.121" y="-19.5066"/>
      <point x="923.087" y="-2"/>
      <point x="924" y="-2" type="curve" smooth="yes"/>
      <point x="924" y="167" type="line"/>
      <point x="895.941" y="165.406"/>
      <point x="870.83" y="164.625"/>
      <point x="848.311" y="164.625" type="curve" smooth="yes"/>
      <point x="800.205" y="164.625"/>
      <point x="763.927" y="168.189"/>
      <point x="736" y="175" type="curve"/>
      <point x="620" y="185"/>
      <point x="607" y="230"/>
      <point x="607" y="300" type="curve" smooth="yes"/>
      <point x="607" y="702" type="line"/>
      <point x="949.853" y="908.639"/>
      <point x="1163.05" y="1118.71"/>
      <point x="1163.05" y="1375.18" type="curve" smooth="yes"/>
      <point x="1163.05" y="1609.4"/>
      <point x="996.685" y="1737.01"/>
      <point x="793.555" y="1737.01" type="curve" smooth="yes"/>
      <point x="792.704" y="1737.01"/>
      <point x="791.852" y="1737"/>
      <point x="791" y="1737" type="curve" smooth="yes"/>
      <point x="552" y="1737"/>
      <point x="287" y="1575"/>
      <point x="287" y="1124" type="curve" smooth="yes"/>
      <point x="287" y="675" type="line"/>
      <point x="120" y="556" type="line"/>
      <point x="120" y="396" type="line"/>
      <point x="287" y="521" type="line"/>
    </contour>
  </outline>
</glyph>
<glyph name="estimated" format="1">
  <advance width="1292"/>
  <unicode hex="212E"/>
  <outline>
    <contour>
      <point x="387" y="601" type="line"/>
      <point x="402" y="863"/>
      <point x="514" y="1042"/>
      <point x="687" y="1042" type="curve" smooth="yes"/>
      <point x="896" y="1042"/>
      <point x="937" y="836"/>
      <point x="937" y="601" type="curve"/>
    </contour>
    <contour>
      <point x="699" y="-20" type="curve" smooth="yes"/>
      <point x="906" y="-20"/>
      <point x="1041" y="70"/>
      <point x="1141" y="188" type="curve"/>
      <point x="1089" y="239" type="line"/>
      <point x="991" y="134"/>
      <point x="879" y="53"/>
      <point x="699" y="53" type="curve" smooth="yes"/>
      <point x="469" y="53"/>
      <point x="386" y="245"/>
      <point x="385" y="521" type="curve"/>
      <point x="1149" y="521" type="line"/>
      <point x="1149" y="869"/>
      <point x="1001" y="1102"/>
      <point x="681" y="1102" type="curve" smooth="yes"/>
      <point x="358" y="1102"/>
      <point x="128" y="861"/>
      <point x="128" y="541" type="curve" smooth="yes"/>
      <point x="128" y="221"/>
      <point x="316" y="-20"/>
    </contour>
  </outline>
</glyph>
<glyph name="partialdiff" format="1">
  <advance width="1267"/>
  <unicode hex="2202"/>
  <outline>
    <contour>
      <point x="609" y="172" type="curve" smooth="yes"/>
      <point x="501" y="172"/>
      <point x="416" y="251"/>
      <point x="416" y="398" type="curve" smooth="yes"/>
      <point x="416" y="509"/>
      <point x="476" y="711"/>
      <point x="655" y="711" type="curve" smooth="yes"/>
      <point x="735" y="711"/>
      <point x="789" y="670"/>
      <point x="860" y="578" type="curve"/>
      <point x="861" y="570"/>
      <point x="861" y="561"/>
      <point x="861" y="552" type="curve" smooth="yes"/>
      <point x="861" y="446"/>
      <point x="812" y="172"/>
    </contour>
    <contour>
      <point x="576" y="-24" type="curve" smooth="yes"/>
      <point x="1030" y="-24"/>
      <point x="1125" y="374"/>
      <point x="1125" y="674" type="curve" smooth="yes"/>
      <point x="1125" y="1087"/>
      <point x="947" y="1432"/>
      <point x="374" y="1432" type="curve"/>
      <point x="356" y="1262" type="line"/>
      <point x="744" y="1262"/>
      <point x="880" y="1026"/>
      <point x="885" y="792" type="curve"/>
      <point x="843" y="863"/>
      <point x="759" y="908"/>
      <point x="652" y="908" type="curve" smooth="yes"/>
      <point x="311" y="908"/>
      <point x="159" y="625"/>
      <point x="159" y="395" type="curve" smooth="yes"/>
      <point x="159" y="163"/>
      <point x="297" y="-24"/>
    </contour>
  </outline>
</glyph>
<glyph name="uni2215" format="1">
  <advance width="914"/>
  <unicode hex="2215"/>
  <outline>
    <contour>
      <point x="113" y="0" type="line"/>
      <point x="358" y="0" type="line"/>
      <point x="880" y="1505" type="line"/>
      <point x="632" y="1505" type="line"/>
    </contour>
  </outline>
</glyph>
<glyph name="uni2219" format="1">
  <advance width="1005"/>
  <unicode hex="2219"/>
  <outline>
    <contour>
      <point x="522" y="512" type="curve" smooth="yes"/>
      <point x="613" y="512"/>
      <point x="679" y="577"/>
      <point x="679" y="680" type="curve" smooth="yes"/>
      <point x="679" y="782"/>
      <point x="609" y="848"/>
      <point x="522" y="848" type="curve" smooth="yes"/>
      <point x="432" y="848"/>
      <point x="365" y="783"/>
      <point x="365" y="680" type="curve" smooth="yes"/>
      <point x="365" y="578"/>
      <point x="437" y="512"/>
    </contour>
  </outline>
</glyph>
<glyph name="approxequal" format="1">
  <advance width="1193"/>
  <unicode hex="2248"/>
  <outline>
    <contour>
      <point x="882" y="746" type="curve" smooth="yes"/>
      <point x="889.49" y="745.443"/>
      <point x="896.72" y="745.154"/>
      <point x="903.694" y="745.154" type="curve" smooth="yes"/>
      <point x="1009.38" y="745.154"/>
      <point x="1056.31" y="811.495"/>
      <point x="1061" y="1016" type="curve"/>
      <point x="928" y="1016" type="line"/>
      <point x="923" y="937"/>
      <point x="891" y="911"/>
      <point x="838" y="911" type="curve" smooth="yes"/>
      <point x="731" y="911"/>
      <point x="537" y="1015"/>
      <point x="312" y="1031" type="curve" smooth="yes"/>
      <point x="304.684" y="1031.54"/>
      <point x="297.486" y="1031.83"/>
      <point x="290.418" y="1031.83" type="curve" smooth="yes"/>
      <point x="192.187" y="1031.83"/>
      <point x="119.329" y="975.959"/>
      <point x="110" y="753" type="curve"/>
      <point x="245" y="753" type="line"/>
      <point x="244" y="838"/>
      <point x="278" y="867"/>
      <point x="337" y="867" type="curve" smooth="yes"/>
      <point x="452" y="867"/>
      <point x="682" y="759"/>
    </contour>
    <contour>
      <point x="914" y="368" type="curve" smooth="yes"/>
      <point x="921.49" y="367.443"/>
      <point x="928.716" y="367.154"/>
      <point x="935.683" y="367.154" type="curve" smooth="yes"/>
      <point x="1041.26" y="367.154"/>
      <point x="1087.37" y="433.495"/>
      <point x="1093" y="638" type="curve"/>
      <point x="960" y="638" type="line"/>
      <point x="955" y="559"/>
      <point x="923" y="533"/>
      <point x="870" y="533" type="curve" smooth="yes"/>
      <point x="763" y="533"/>
      <point x="569" y="638"/>
      <point x="344" y="653" type="curve" smooth="yes"/>
      <point x="336.684" y="653.537"/>
      <point x="329.486" y="653.826"/>
      <point x="322.418" y="653.826" type="curve" smooth="yes"/>
      <point x="224.187" y="653.826"/>
      <point x="151.329" y="597.959"/>
      <point x="142" y="375" type="curve"/>
      <point x="277" y="375" type="line"/>
      <point x="276" y="460"/>
      <point x="310" y="489"/>
      <point x="369" y="489" type="curve" smooth="yes"/>
      <point x="484" y="489"/>
      <point x="714" y="381"/>
    </contour>
  </outline>
</glyph>
<glyph name="notequal" format="1">
  <advance width="835"/>
  <unicode hex="2260"/>
  <outline>
    <contour>
      <point x="209" y="174" type="line"/>
      <point x="388" y="174" type="line"/>
      <point x="472" y="414" type="line"/>
      <point x="875" y="414" type="line"/>
      <point x="875" y="603" type="line"/>
      <point x="538" y="603" type="line"/>
      <point x="603" y="792" type="line"/>
      <point x="875" y="792" type="line"/>
      <point x="875" y="981" type="line"/>
      <point x="669" y="981" type="line"/>
      <point x="754" y="1224" type="line"/>
      <point x="576" y="1224" type="line"/>
      <point x="491" y="981" type="line"/>
      <point x="40" y="981" type="line"/>
      <point x="40" y="792" type="line"/>
      <point x="425" y="792" type="line"/>
      <point x="359" y="603" type="line"/>
      <point x="40" y="603" type="line"/>
      <point x="40" y="414" type="line"/>
      <point x="293" y="414" type="line"/>
    </contour>
  </outline>
</glyph>
<glyph name="caron.alt" format="1">
  <advance width="814"/>
  <outline>
    <contour>
      <point x="163" y="1168" type="move" name="_caron.alt"/>
    </contour>
    <contour>
      <point x="388" y="1703" type="curve" smooth="yes"/>
      <point x="388" y="1587"/>
      <point x="448" y="1527"/>
      <point x="543" y="1520" type="curve"/>
      <point x="541" y="1433"/>
      <point x="483" y="1372"/>
      <point x="405" y="1370" type="curve"/>
      <point x="405" y="1293" type="line"/>
      <point x="586" y="1293"/>
      <point x="726" y="1469"/>
      <point x="726" y="1657" type="curve" smooth="yes"/>
      <point x="726" y="1785"/>
      <point x="653" y="1859"/>
      <point x="553" y="1859" type="curve" smooth="yes"/>
      <point x="470" y="1859"/>
      <point x="388" y="1803"/>
    </contour>
  </outline>
</glyph>
